HIERARCHY
ROOT Hips
{
	OFFSET -0.001795 -0.223333 0.028219
	CHANNELS 6 Xposition Yposition Zposition Zrotation Yrotation Xrotation 
	JOINT LeftUpLeg
	{
		OFFSET 0.069520 -0.091406 -0.006815
		CHANNELS 3 Zrotation Yrotation Xrotation
		JOINT LeftLeg
		{
			OFFSET 0.034277 -0.375199 -0.004496
			CHANNELS 3 Zrotation Yrotation Xrotation
			JOINT LeftFoot
			{
				OFFSET -0.013596 -0.397961 -0.043693
				CHANNELS 3 Zrotation Yrotation Xrotation
				JOINT LeftToe
				{
					OFFSET 0.026358 -0.055791 0.119288
					CHANNELS 3 Zrotation Yrotation Xrotation
					End Site
					{
						OFFSET 0.000000 0.000000 0.000000
					}
				}
			}
		}
	}
	JOINT RightUpLeg
	{
		OFFSET -0.067670 -0.090522 -0.004320
		CHANNELS 3 Zrotation Yrotation Xrotation
		JOINT RightLeg
		{
			OFFSET -0.038290 -0.382569 -0.008850
			CHANNELS 3 Zrotation Yrotation Xrotation
			JOINT RightFoot
			{
				OFFSET 0.015774 -0.398415 -0.042312
				CHANNELS 3 Zrotation Yrotation Xrotation
				JOINT RightToe
				{
					OFFSET -0.025372 -0.048144 0.123348
					CHANNELS 3 Zrotation Yrotation Xrotation
					End Site
					{
						OFFSET 0.000000 0.000000 0.000000
					}
				}
			}
		}
	}
	JOINT Spine
	{
		OFFSET -0.002533 0.108963 -0.026696
		CHANNELS 3 Zrotation Yrotation Xrotation
		JOINT Spine1
		{
			OFFSET 0.005487 0.135180 0.001092
			CHANNELS 3 Zrotation Yrotation Xrotation
			JOINT Spine2
			{
				OFFSET 0.001457 0.052922 0.025425
				CHANNELS 3 Zrotation Yrotation Xrotation
				JOINT Neck
				{
					OFFSET -0.002778 0.213870 -0.042857
					CHANNELS 3 Zrotation Yrotation Xrotation
					JOINT Head
					{
						OFFSET 0.005152 0.064970 0.051349
						CHANNELS 3 Zrotation Yrotation Xrotation
						End Site
						{
							OFFSET 0.000000 0.000000 0.000000
						}
					}
				}
				JOINT LeftShoulder
				{
					OFFSET 0.078845 0.121749 -0.034090
					CHANNELS 3 Zrotation Yrotation Xrotation
					JOINT LeftArm
					{
						OFFSET 0.090977 0.030469 -0.008868
						CHANNELS 3 Zrotation Yrotation Xrotation
						JOINT LeftForeArm
						{
							OFFSET 0.259612 -0.012772 -0.027456
							CHANNELS 3 Zrotation Yrotation Xrotation
							JOINT LeftHand
							{
								OFFSET 0.249234 0.008986 -0.001171
								CHANNELS 3 Zrotation Yrotation Xrotation
								End Site
								{
									OFFSET 0.000000 0.000000 0.000000
								}
							}
						}
					}
				}
				JOINT RightShoulder
				{
					OFFSET -0.081759 0.118833 -0.038615
					CHANNELS 3 Zrotation Yrotation Xrotation
					JOINT RightArm
					{
						OFFSET -0.096012 0.032551 -0.009143
						CHANNELS 3 Zrotation Yrotation Xrotation
						JOINT RightForeArm
						{
							OFFSET -0.253742 -0.013329 -0.021401
							CHANNELS 3 Zrotation Yrotation Xrotation
							JOINT RightHand
							{
								OFFSET -0.255298 0.007772 -0.005559
								CHANNELS 3 Zrotation Yrotation Xrotation
								End Site
								{
									OFFSET 0.000000 0.000000 0.000000
								}
							}
						}
					}
				}
			}
		}
	}
}
MOTION
Frames: 16
Frame Time: 0.050000
-0.729146 0.882225 3.913305 -2.469409 18.720041 1.845490 7.083229 -1.936087 -24.188048 -18.714072 3.067606 29.287630 19.289895 35.584984 2.362981 0.000000 0.000000 0.000000 -6.508313 0.067311 -19.953284 5.732208 -6.522070 47.982366 -8.721792 -22.241362 -4.147620 0.000000 0.000000 0.000000 5.086735 -2.948474 22.301546 -6.191934 2.220702 -25.030320 -0.819519 16.337385 29.858979 6.127222 3.363691 -33.436545 0.000000 0.000000 0.000000 -15.205005 -9.109330 -2.934191 -61.441838 4.476184 -12.273443 -16.019923 -46.932132 5.042081 0.000000 0.000000 0.000000 24.422609 -7.343009 2.131586 71.454913 -7.329828 -12.329753 14.537926 41.740028 10.748715 0.000000 0.000000 0.000000 
-0.716470 0.881788 3.923347 -3.223676 22.411937 0.710994 6.116573 -2.241438 -24.140698 -18.732934 2.547097 32.459463 18.616825 34.459732 1.531766 0.000000 0.000000 0.000000 -5.640599 -0.086614 -22.633475 3.583986 -7.862847 55.593582 -7.949780 -19.562629 -1.795563 0.000000 0.000000 0.000000 5.061725 -3.165502 22.595846 -5.779655 2.238631 -24.116618 -1.117953 15.472487 30.566222 5.923678 3.726217 -34.320623 0.000000 0.000000 0.000000 -14.924616 -9.421448 -3.063625 -61.210083 3.204216 -11.605252 -15.208582 -49.285796 4.574934 0.000000 0.000000 0.000000 24.969002 -7.029239 2.880279 70.366790 -5.493303 -11.386881 15.675044 41.627781 11.252535 0.000000 0.000000 0.000000 
-0.704757 0.882737 3.934629 -3.782656 26.726294 0.231332 5.598719 -2.560798 -24.432713 -18.894032 1.842970 34.659974 17.639680 32.829106 0.785158 0.000000 0.000000 0.000000 -4.728240 -0.388604 -25.756830 0.724271 -8.164272 59.542947 -6.188186 -15.043213 -3.052260 0.000000 0.000000 0.000000 4.735428 -3.274748 22.493189 -5.270026 2.221666 -23.506937 -0.937493 13.756972 30.888367 4.023134 4.732704 -34.320871 0.000000 0.000000 0.000000 -15.338178 -8.802223 -3.791673 -60.542828 2.509622 -10.946336 -15.705975 -49.640814 4.581140 0.000000 0.000000 0.000000 23.595566 -6.616850 3.150969 71.298271 -4.878658 -10.671497 15.435159 40.985783 10.998161 0.000000 0.000000 0.000000 
-0.693175 0.885819 3.947057 -4.760897 30.390742 -0.400189 5.273202 -2.683188 -23.899021 -18.218703 0.919049 35.764607 17.299128 31.936248 0.072336 0.000000 0.000000 0.000000 -2.245058 -0.217253 -28.252264 -2.470126 -6.822068 58.705654 -4.580332 -10.883093 -4.613546 0.000000 0.000000 0.000000 5.030601 -3.480550 22.303422 -5.495068 2.305079 -23.506686 -0.189942 13.261989 31.940764 4.001715 5.076225 -35.284119 0.000000 0.000000 0.000000 -16.046977 -8.915010 -4.597088 -59.807135 2.081652 -10.356128 -14.658400 -51.282729 3.821954 0.000000 0.000000 0.000000 23.118086 -6.554015 3.602411 71.988174 -3.422210 -9.586147 12.998598 40.766249 10.065271 0.000000 0.000000 0.000000 
-0.681830 0.888068 3.960374 -5.510849 35.018370 -0.886733 4.365622 -2.941857 -23.655665 -16.789877 -0.406466 36.705713 16.685647 30.445083 -0.237157 0.000000 0.000000 0.000000 -1.260739 -0.542564 -29.595848 -2.613893 -6.982050 53.767008 -3.813009 -9.062964 -6.639441 0.000000 0.000000 0.000000 5.386278 -3.809778 22.375521 -4.762707 2.258133 -22.775542 -0.396651 12.556272 31.541297 3.998214 5.340108 -34.311884 0.000000 0.000000 0.000000 -17.231060 -9.656052 -5.441966 -59.198837 1.870883 -9.608557 -13.427084 -51.896199 2.818977 0.000000 0.000000 0.000000 23.948099 -7.071713 4.044654 71.899817 -2.896433 -9.262407 11.542240 41.367811 9.817634 0.000000 0.000000 0.000000 
-0.670699 0.890678 3.974472 -6.530136 39.219219 -2.181595 4.274110 -2.917034 -22.729266 -16.037548 -1.558061 38.055463 15.867054 28.438147 -1.349391 0.000000 0.000000 0.000000 0.142574 -0.794130 -31.184277 -3.878475 -5.847907 48.624981 -2.493455 -5.872830 -7.396528 0.000000 0.000000 0.000000 6.186470 -4.343338 22.835347 -5.031384 2.345413 -23.052695 0.202621 12.614860 32.438116 4.859162 5.382203 -34.142329 0.000000 0.000000 0.000000 -18.286226 -11.216991 -6.104644 -58.445392 2.311686 -9.176395 -13.349410 -53.542285 2.281498 0.000000 0.000000 0.000000 24.880189 -7.956721 4.443310 71.259161 -2.040515 -8.894516 11.033869 42.228972 10.104480 0.000000 0.000000 0.000000 
-0.660211 0.890689 3.989465 -7.415139 43.152172 -3.033711 4.010257 -2.999035 -22.370546 -15.370586 -2.661197 39.280510 15.600008 27.402132 -1.875227 0.000000 0.000000 0.000000 1.160898 -1.284012 -33.104051 -4.919614 -4.578486 43.446030 -1.142741 -2.678941 -6.215395 0.000000 0.000000 0.000000 6.401071 -4.637594 22.964839 -4.610837 2.336566 -22.793250 0.538141 12.392119 32.541767 4.802712 5.739629 -34.169787 0.000000 0.000000 0.000000 -19.030146 -11.981387 -6.908930 -58.505109 2.801406 -9.064943 -14.289452 -53.846064 2.327966 0.000000 0.000000 0.000000 25.612056 -7.701538 5.516745 70.938194 -2.044744 -9.119654 10.864681 43.873258 10.644524 0.000000 0.000000 0.000000 
-0.650412 0.889053 4.005551 -8.555198 46.766755 -4.675148 4.108063 -2.999579 -21.902645 -15.150438 -3.771664 41.133841 15.269229 25.972566 -3.661874 0.000000 0.000000 0.000000 2.057825 -1.739991 -34.297052 -5.519029 -3.475840 38.170929 0.583658 1.202546 -5.715289 0.000000 0.000000 0.000000 7.729816 -5.358826 23.419657 -5.338775 2.457213 -23.306284 1.097622 12.737134 33.957609 4.946078 6.129922 -34.599788 0.000000 0.000000 0.000000 -19.231105 -13.432030 -7.346566 -58.113165 3.109113 -8.861548 -15.169656 -55.063729 2.201561 0.000000 0.000000 0.000000 26.471992 -8.861522 5.757416 70.215354 -2.056982 -9.297092 11.646194 45.801567 11.974357 0.000000 0.000000 0.000000 
-0.640460 0.885320 4.022812 -8.941376 48.615820 -4.780424 4.430189 -3.123535 -22.227966 -15.430515 -4.438100 42.907968 15.126696 25.422588 -4.602537 0.000000 0.000000 0.000000 3.094370 -2.062384 -36.031867 -6.694550 -1.947313 33.480552 2.962844 6.387455 -4.729483 0.000000 0.000000 0.000000 8.016051 -5.413590 23.030747 -5.325433 2.506303 -23.073193 1.086948 13.109018 33.720494 5.121228 6.265065 -34.249894 0.000000 0.000000 0.000000 -18.672563 -13.793156 -7.433498 -59.040940 4.138011 -9.746481 -17.429251 -55.531352 2.987213 0.000000 0.000000 0.000000 26.831184 -8.804871 6.379373 69.819495 -2.794046 -9.803274 13.193806 47.868448 13.428951 0.000000 0.000000 0.000000 
-0.629833 0.881053 4.041250 -8.415512 50.823669 -4.754515 3.768340 -3.112076 -21.650807 -15.912749 -5.246850 44.969210 15.360425 25.352289 -5.312663 0.000000 0.000000 0.000000 3.199258 -2.546426 -36.527812 -6.829212 -1.258410 29.385072 4.034594 8.134442 -2.708852 0.000000 0.000000 0.000000 8.516994 -5.923662 23.644925 -6.483953 2.642947 -23.509234 1.247555 13.478089 33.935690 6.346629 5.929527 -33.438290 0.000000 0.000000 0.000000 -18.468024 -13.479579 -8.103172 -58.746638 4.187353 -9.651582 -18.269674 -55.023304 3.050669 0.000000 0.000000 0.000000 26.262394 -9.485298 6.092864 70.874005 -3.232871 -9.462570 13.063565 50.228375 14.605362 0.000000 0.000000 0.000000 
-0.618224 0.876466 4.060509 -7.303540 52.456214 -4.447092 2.657854 -2.768813 -19.766719 -14.966354 -5.962364 44.949959 15.389725 24.263385 -6.505374 0.000000 0.000000 0.000000 3.172470 -2.783557 -36.350126 -7.398360 -1.335768 29.917414 4.472045 8.836838 -1.875194 0.000000 0.000000 0.000000 8.185802 -6.031691 23.966955 -5.226893 2.543255 -22.893335 -0.973889 14.990229 32.747007 8.325752 5.073056 -31.736813 0.000000 0.000000 0.000000 -18.389979 -14.643893 -8.200112 -57.711844 4.922513 -9.375587 -17.764519 -54.299112 2.354024 0.000000 0.000000 0.000000 27.356384 -9.118013 7.312218 70.063224 -2.724593 -9.518553 13.691018 52.153473 15.508644 0.000000 0.000000 0.000000 
-0.606359 0.871519 4.079795 -6.552628 53.814494 -4.443655 2.086170 -2.387488 -17.926104 -15.168401 -6.434778 45.858610 15.754664 24.412525 -6.399316 0.000000 0.000000 0.000000 3.713919 -3.123760 -37.586532 -9.080859 -1.258420 32.375004 6.754974 12.727498 0.748709 0.000000 0.000000 0.000000 8.294431 -6.489303 24.791591 -5.577353 2.617580 -22.571533 -1.634322 15.753801 31.575014 9.128061 4.695797 -30.953502 0.000000 0.000000 0.000000 -16.797094 -14.167853 -7.895287 -58.788740 4.611055 -9.951811 -20.394312 -52.921956 3.116249 0.000000 0.000000 0.000000 26.020570 -9.475854 6.685267 70.997074 -3.196597 -8.781344 13.100387 52.657193 15.477541 0.000000 0.000000 0.000000 
-0.595012 0.867596 4.099183 -5.935082 55.461530 -3.989819 2.375390 -2.167027 -16.896888 -15.626699 -6.738855 46.349505 16.407691 24.725878 -7.597479 0.000000 0.000000 0.000000 3.378502 -3.683689 -37.979898 -9.975733 -1.623810 34.801377 6.406406 12.356537 -0.973685 0.000000 0.000000 0.000000 8.223478 -6.511048 24.613788 -5.366606 2.546041 -22.821238 -1.731366 16.148331 31.529662 8.793854 4.951908 -30.125410 0.000000 0.000000 0.000000 -16.994207 -14.409304 -8.501690 -58.645149 5.452324 -10.088840 -19.391654 -51.105806 2.366532 0.000000 0.000000 0.000000 25.219576 -9.273785 6.874041 70.230981 -2.102719 -7.789590 12.673035 52.264327 14.918834 0.000000 0.000000 0.000000 
-0.585144 0.866509 4.119119 -5.398701 56.442759 -3.008406 2.663181 -2.046795 -16.298920 -15.581131 -7.105416 46.911120 16.465308 24.644072 -7.212636 0.000000 0.000000 0.000000 3.585612 -3.855804 -38.240708 -11.282856 -1.565721 36.388305 7.124711 13.997198 -2.437286 0.000000 0.000000 0.000000 8.228744 -6.591153 24.613071 -5.304896 2.482303 -23.218068 -1.902670 16.480733 31.136614 8.890630 5.028160 -30.411822 0.000000 0.000000 0.000000 -15.937801 -13.362189 -8.691142 -59.728107 5.576841 -10.848785 -22.518136 -50.187511 3.339848 0.000000 0.000000 0.000000 23.193912 -9.186095 6.161765 71.129649 -2.184895 -6.586101 12.189570 50.963128 13.958308 0.000000 0.000000 0.000000 
-0.576665 0.867396 4.140489 -5.694020 58.368176 -2.788271 3.467713 -2.014875 -16.081074 -15.285994 -7.684148 47.247650 16.750078 24.784091 -6.485655 0.000000 0.000000 0.000000 3.236426 -4.119012 -37.486568 -11.233799 -2.160404 37.123030 6.738452 13.628377 -5.137460 0.000000 0.000000 0.000000 8.934691 -6.792216 24.129689 -5.599295 2.570314 -22.508323 -2.273167 15.759910 30.262760 8.474628 5.093710 -29.480912 0.000000 0.000000 0.000000 -16.102159 -12.849481 -9.202488 -60.599175 6.055167 -11.317719 -22.002556 -48.941046 2.972890 0.000000 0.000000 0.000000 21.067783 -8.119891 6.004212 72.472507 -1.764716 -5.119385 10.199052 50.094301 12.380845 0.000000 0.000000 0.000000 
-0.569590 0.869229 4.163229 -5.814014 60.740715 -1.920566 3.794000 -2.126668 -16.461942 -14.558677 -8.770580 48.326468 17.250957 25.770056 -4.164669 0.000000 0.000000 0.000000 3.320150 -4.498443 -37.441547 -11.949774 -2.585899 38.389409 6.461348 13.308421 -7.380806 0.000000 0.000000 0.000000 9.038305 -6.869882 23.847244 -5.408027 2.431726 -23.486343 -2.277020 15.340361 30.586476 8.201750 5.458309 -30.094801 0.000000 0.000000 0.000000 -16.337607 -12.661141 -9.908039 -59.976049 7.159118 -11.507061 -23.880460 -48.363664 3.535780 0.000000 0.000000 0.000000 20.135142 -7.778143 6.087897 72.580819 -0.937897 -4.076077 8.272884 49.284907 10.943564 0.000000 0.000000 0.000000 
